<svg xmlns="http://www.w3.org/2000/svg" width="148" height="131.141" viewBox="0 0 148 131.141">
  <g id="S" transform="translate(19567 -12687)">
    <path id="S-2" data-name="S" d="M1642.39,420.12c-4.19-15.85-15.12-23.31-31.15-23.31-11.11,0-24.77,4.74-24.77,17.85,0,15.85,20.95,20.95,33.33,23.32,20.76,4.01,43.53,11.48,43.53,36.43s-25.5,37.7-48.09,37.7c-26.59,0-51.21-18.21-52.03-48.63h16.62c1.77,20.95,14.47,32.79,35.6,32.79,13.3,0,30.6-5.28,30.6-21.31s-19.49-19.67-32.06-21.86c-29.51-5.1-44.26-17.85-44.26-38.07,0-23.13,22.95-34.06,42.99-34.06s42.01,10.93,46.49,39.16h-16.8Z" transform="translate(-21106.211 12306.03)" fill="#fff"/>
    <rect id="Rectangle_861" data-name="Rectangle 861" width="148" height="129" transform="translate(-19567 12688)" fill="none"/>
  </g>
</svg>
