<svg xmlns="http://www.w3.org/2000/svg" width="209.84" height="54.782" viewBox="0 0 209.84 54.782"><defs><style>.a{fill:#00427a;fill-rule:evenodd;}.b{fill:#ed1c24;}</style></defs><path class="a" d="M296.887,34.548c-13.1-1.1-18.955,1.739-25.737,3.072s-25.332,1.507-36.635,2.2c-11.362.637-69.155,1.333-81.154,1.739s-26.2,16.984-26.2,16.984c2.9-2.029,3.942-.87,3.942-.87,3.652-3.42,14.839-6.086,14.839-6.086,10.144-6.261,35.534-8.116,47.533-8.289,12.057-.174,55.127,1.391,68.923,1.739s22.955-5.739,34.026-6.551c7.13-.521,26.259,1.392,27.94,1.739s1.044-.811,2.2-.869c1.159-.116,3.942.695,4.347.464.464-.29,6.087,0,6.087,0S309.987,35.649,296.887,34.548Zm-95.529.463s18.085-11.477,36.635-11.767c32.693-.464,44.634,5.565,45.388,6.55s-.87,2.2-.87,2.2c.87,0,1.333,1.333,1.333,1.333,7.072-.753,38.374,1.739,38.374,1.739s-1.333-1.159-7.825-1.739c-11.246-.985-21.506-5.68-25.737-6.55-4.29-.927-14.2-5.565-39.766-5.739-9.448-.058-18.665.638-26.2,2.609-5.217,1.333-9.274,3.652-13.332,5.333a96.208,96.208,0,0,0-10.666,5.565c-3.768,2.144-6.086,3.478-6.086,3.478,2.492,0,4.463-1.334,6.086-2.2a6.888,6.888,0,0,1,2.667-.812Z" transform="translate(-127.16 -21.038)"/><path class="b" d="M167.969,62.662H155.68v-4.7h17.738V54.14H151.564V75.762h4.116V66.429h12.347V62.662Zm9.68-8.464L166.172,75.82h4.521l2.435-4.637h14.086l2.434,4.637h4.522L182.692,54.2Zm-2.492,13.159,5.043-9.565,4.985,9.565ZM217.3,64.632a5.063,5.063,0,0,0,2.493-4.405,5.468,5.468,0,0,0-1.913-4.348A7.782,7.782,0,0,0,212.6,54.2H195.329V75.82h17.042c5.507,0,8.232-1.971,8.232-5.855A5.691,5.691,0,0,0,217.3,64.632Zm-17.911-6.666h13.39q2.957,0,2.956,2.435a2.281,2.281,0,0,1-.869,1.855,3.513,3.513,0,0,1-2.261.695H199.329V57.966Zm16,13.391a5.531,5.531,0,0,1-3.015.695H199.387V66.835h13.332c2.493,0,3.768.928,3.768,2.725a2.076,2.076,0,0,1-1.1,1.8Zm31.765-10.319a6.425,6.425,0,0,0-1.97-4.985,7.556,7.556,0,0,0-5.333-1.855H222.863V75.82h4.116V67.879h10.434l5.507,7.941h4.7l-5.681-8.231C245.412,66.835,247.151,64.632,247.151,61.038Zm-20.172,3.015V57.966h12c2.667,0,3.942,1.044,3.942,3.13,0,1.971-1.218,2.957-3.71,2.957ZM249.7,75.82h4.116V54.2H249.7ZM301.176,54.2h-5.1L284.888,75.414,273.121,62.488l11.245-8.29H278.28L263.962,64.806V54.2H259.9V75.82h4.116V69.27l5.97-4.406L280.019,75.82h9.216l2.435-4.637H305.7l2.435,4.637h4.521Zm-7.535,13.159,5.043-9.565,4.985,9.565Z" transform="translate(-127.16 -21.038)"/></svg>