<?xml version="1.0" standalone="no"?>
<!DOCTYPE svg PUBLIC "-//W3C//DTD SVG 20010904//EN"
 "http://www.w3.org/TR/2001/REC-SVG-20010904/DTD/svg10.dtd">
<svg version="1.0" xmlns="http://www.w3.org/2000/svg"
 width="256.000000pt" height="256.000000pt" viewBox="0 0 256.000000 256.000000"
 preserveAspectRatio="xMidYMid meet">

<g transform="translate(0.000000,256.000000) scale(0.100000,-0.100000)"
fill="#000000" stroke="none">
<path d="M0 1301 c0 -1230 0 -1239 20 -1244 11 -3 20 -12 20 -21 0 -15 112
-16 1239 -16 1230 0 1239 0 1244 20 3 11 12 20 21 20 15 0 16 112 16 1240 l0
1240 -1280 0 -1280 0 0 -1239z m715 409 c4 -25 12 -40 21 -40 8 0 14 -10 14
-24 0 -45 13 -86 26 -86 10 0 14 -15 14 -55 0 -48 2 -55 20 -55 18 0 20 -7 20
-55 0 -40 4 -55 14 -55 13 0 26 -41 26 -86 0 -15 6 -24 15 -24 11 0 15 -11 15
-40 0 -33 3 -40 20 -40 18 0 20 -7 20 -56 0 -47 3 -57 20 -61 15 -4 20 -14 20
-39 0 -22 5 -34 14 -34 13 0 26 41 26 86 0 15 6 24 15 24 9 0 15 9 15 24 0 45
13 86 26 86 10 0 14 13 14 39 0 30 4 40 20 44 17 4 20 14 20 61 0 41 4 56 14
56 16 0 26 30 26 78 0 20 5 32 14 32 13 0 26 41 26 86 0 15 6 24 15 24 10 0
15 10 15 33 0 47 10 77 26 77 8 0 14 9 14 20 0 20 7 20 299 20 290 0 299 -1
304 -20 4 -15 14 -20 41 -20 24 0 36 -5 36 -14 0 -7 9 -16 20 -19 11 -3 20
-12 20 -21 0 -9 7 -16 15 -16 8 0 15 -9 15 -20 0 -13 7 -20 20 -20 19 0 20 -7
20 -130 0 -123 -1 -130 -20 -130 -13 0 -20 -7 -20 -20 0 -11 -7 -20 -15 -20
-8 0 -15 -9 -15 -20 0 -13 -7 -20 -20 -20 -11 0 -20 -6 -20 -14 0 -14 -42 -26
-91 -26 -19 0 -29 -5 -29 -15 0 -13 -25 -15 -165 -15 l-165 0 0 -159 c0 -87
-3 -173 -6 -190 -6 -30 -8 -31 -60 -31 -41 0 -54 4 -54 15 0 8 -7 15 -15 15
-13 0 -15 42 -15 314 0 172 -3 328 -6 345 -8 40 -34 42 -34 2 0 -49 -12 -91
-26 -91 -10 0 -14 -15 -14 -55 0 -48 -2 -55 -20 -55 -17 0 -20 -7 -20 -40 0
-29 -4 -40 -15 -40 -9 0 -15 -9 -15 -24 0 -45 -13 -86 -26 -86 -9 0 -14 -12
-14 -32 0 -48 -10 -78 -26 -78 -10 0 -14 -15 -14 -55 0 -48 -2 -55 -20 -55
-15 0 -20 -7 -20 -25 0 -18 -5 -25 -20 -25 -11 0 -20 -7 -20 -15 0 -12 -14
-15 -70 -15 -63 0 -70 2 -70 20 0 13 -7 20 -20 20 -14 0 -20 7 -20 24 0 45
-13 86 -26 86 -10 0 -14 15 -14 55 0 48 -2 55 -20 55 -18 0 -20 7 -20 54 0 45
-3 54 -20 59 -17 4 -20 14 -20 61 0 42 -4 56 -14 56 -9 0 -17 15 -21 40 -4 25
-12 40 -21 40 -10 0 -14 14 -14 51 0 42 -3 52 -20 56 -17 5 -20 14 -20 59 0
39 -4 54 -14 54 -7 0 -16 -10 -20 -22 -3 -13 -6 -191 -6 -395 l0 -373 -55 0
-55 0 0 470 0 470 109 0 109 0 7 -40z"/>
<path d="M1510 1465 l0 -135 133 0 c165 0 237 8 237 26 0 8 9 14 20 14 17 0
20 7 20 40 0 33 3 40 20 40 12 0 20 7 20 16 0 9 -9 18 -20 21 -16 4 -20 14
-20 44 0 27 -4 39 -14 39 -8 0 -16 7 -20 15 -4 13 -35 15 -191 15 l-185 0 0
-135z"/>
</g>
</svg>
